# xmcd CD database file
#
# Track frame offsets:
#	182
#	20722
#	36617
#	58647
#	74730
#	100652
#	128632
#	153000
#	180452
#	209662
#	233190
#	263225
#	277425
#
# Disc length: 3859 seconds
#
# Revision: 2
# Processed by: cddbd v1.5.2PL0 Copyright (c) Steve Scherf et al.
# Submitted via: CDex 1.51
#
DISCID=c70f110d
DTITLE=Lennie Tristano - Vol. 259 - Requiem
DYEAR=1956
DGENRE=Jazz
TTITLE0=East Thirty-Second (L.Tristano)
TTITLE1=Turkish Mambo (L. Tristano)
TTITLE2=Requiem (L.Tristano)
TTITLE3=Line up (L.Tristano)
TTITLE4=These Foolish Things (Link - Strachey - Marvell)
TTITLE5=All the things you are ( Kern - Hammerstein)
TTITLE6=You got to my head (J.F. Coots)
TTITLE7=Ghost of a chance (Crosby - Washington - Young)
TTITLE8=If I had you ( Shapiro - Campbell - Connelly)
TTITLE9=Sax of a kind ( L. Tristano)
TTITLE10=Confucius blues (L. Tristano)
TTITLE11=Overtime (P. Rugolo)
TTITLE12=Victory ball (L. Tristano)
EXTD=YEAR: 1956
EXTT0=
EXTT1=
EXTT2=
EXTT3=
EXTT4=
EXTT5=
EXTT6=
EXTT7=
EXTT8=
EXTT9=
EXTT10=
EXTT11=
EXTT12=
PLAYORDER=
